# xmcd
#
# Track frame offsets: 
#        150
#        16077
#        28038
#        41321
#        54203
#        69483
#        79349
#        92332
#        104079
#        116643
#        132766
#        145928
#        162363
#        173191
#        186282
#
# Disc length: 2666 seconds
#
# Revision: 0
# Processed by: cddbd v1.5.2PL0 Copyright (c) Steve Scherf et al.
# Submitted via: ExactAudioCopy v0.95b4
#
DISCID=c10a680f
DTITLE=John Lee Hooker - Hooker Plays The Blues (TheIntroCollection D3
DTITLE=)
DYEAR=1900
DGENRE=Blues
TTITLE0=Serves Me Right To Suffer
TTITLE1=I'm Mad Again
TTITLE2=Don't Look Back
TTITLE3=Baby Lee
TTITLE4=Tupelo (Live)
TTITLE5=Onions
TTITLE6=I See You When You're Weak
TTITLE7=Solid Sender
TTITLE8=Frisco Blues
TTITLE9=My First Wife Left Me
TTITLE10=I'm So Excited
TTITLE11=Five Long Years
TTITLE12=No Shoes
TTITLE13=Birmingham Blues
TTITLE14=Time Is Marching
EXTD=
EXTT0=
EXTT1=
EXTT2=
EXTT3=
EXTT4=
EXTT5=
EXTT6=
EXTT7=
EXTT8=
EXTT9=
EXTT10=
EXTT11=
EXTT12=
EXTT13=
EXTT14=
PLAYORDER=
